<svg width="50" height="46" viewBox="0 0 50 46" fill="none" xmlns="http://www.w3.org/2000/svg">
<rect x="0.804932" width="48.336" height="46" rx="4" fill="#5956E9"/>
<path d="M16.6069 23.9996H22.1842V21.9996H16.6069V12.8456C16.6069 12.7587 16.628 12.6734 16.668 12.5979C16.7081 12.5224 16.7657 12.4595 16.8352 12.4153C16.9047 12.3711 16.9838 12.3471 17.0645 12.3458C17.1453 12.3444 17.225 12.3657 17.2957 12.4076L34.4569 22.5616C34.5297 22.6048 34.5905 22.6682 34.6328 22.7452C34.6752 22.8223 34.6975 22.9101 34.6975 22.9996C34.6975 23.0891 34.6752 23.177 34.6328 23.254C34.5905 23.331 34.5297 23.3945 34.4569 23.4376L17.2957 33.5916C17.225 33.6335 17.1453 33.6548 17.0645 33.6535C16.9838 33.6521 16.9047 33.6282 16.8352 33.584C16.7657 33.5398 16.7081 33.4768 16.668 33.4013C16.628 33.3259 16.6069 33.2405 16.6069 33.1536V23.9996Z" fill="white"/>
</svg>
